<svg width="36" height="34" viewBox="0 0 36 34" fill="none" xmlns="http://www.w3.org/2000/svg">
<path d="M6.86708 13.4847C6.8056 13.8156 6.76959 14.1508 6.72363 14.4729C8.74868 14.3622 10.6936 14.6384 12.6677 15.1036C12.6814 15.065 12.7168 14.9978 12.7286 14.9263C12.8342 14.2789 12.9391 13.6309 13.0341 12.9822C13.0441 12.9157 13.008 12.8118 12.9571 12.772C12.6553 12.5363 12.3635 12.277 12.03 12.096C11.2656 11.6818 10.4229 11.4996 9.57149 11.3665C8.96478 11.272 8.35684 11.2366 7.75634 11.4169C7.45764 11.5065 7.2316 11.6601 7.16826 11.9984C7.07573 12.4953 6.95961 12.9878 6.8677 13.4847H6.86708Z" fill="white"/>
<path d="M6.58342 17.7642C6.58342 17.7642 6.58263 17.7666 6.58105 17.7689C6.58105 17.7689 6.58184 17.7689 6.58263 17.7689C6.58263 17.7689 6.58263 17.7682 6.58263 17.7674C6.58263 17.7658 6.58263 17.765 6.58342 17.7634V17.7642Z" fill="white"/>
<path d="M15.0209 6.24391C15.8456 7.3938 15.8356 8.57479 14.9836 9.75206C15.2134 9.68987 15.45 9.63825 15.6288 9.50827C16.7038 8.72592 17.0677 7.29803 16.5324 6.04241C16.1256 5.08903 15.3836 4.51378 14.3912 4.35519C13.5467 4.22024 12.7127 4.418 11.9346 4.79363C11.8563 4.83157 11.7868 4.88816 11.7129 4.93605C13.0834 4.71963 14.2142 5.11951 15.0209 6.24453V6.24391Z" fill="white"/>
<path d="M6.80561 20.468C6.81678 20.5389 6.87143 20.6335 6.93167 20.6608C7.25769 20.8107 7.57998 21.0128 7.92463 21.0688C9.3498 21.3008 10.7327 21.1248 12.035 20.4755C12.2579 20.3642 12.4479 20.177 12.6323 20.0029C12.6944 19.9444 12.7205 19.8163 12.7156 19.7224C12.6845 19.121 12.6404 18.5196 12.5994 17.9189C12.5926 17.8219 12.5814 17.7255 12.5777 17.6863C10.5899 18.1739 8.60958 18.1589 6.58329 17.7684C6.54168 18.6776 6.66712 19.5738 6.80685 20.468H6.80561Z" fill="white"/>
<path d="M9.58095 8.49088C9.97838 8.51016 10.3895 8.5083 10.7683 8.61153C12.1127 8.97659 13.3299 9.52573 13.785 11.0251C13.8142 10.9847 14.5476 10.2446 14.5476 9.20234C14.4781 7.43676 12.3897 6.14196 10.6056 6.38761C10.0945 6.45789 9.59771 6.63451 9.2866 7.07855C8.94505 7.56487 8.6507 8.08478 8.34331 8.59474C8.29426 8.67621 8.28246 8.78007 8.2334 8.93617C8.67803 8.62211 9.10837 8.46912 9.58095 8.49151V8.49088Z" fill="white"/>
<path d="M17.1258 9.4385C17.3661 9.39435 17.607 9.35206 17.8474 9.30541C18.4447 9.18974 19.0403 9.06349 19.6395 8.96026C19.8718 8.92046 19.9059 8.89745 19.7929 8.67978C19.5855 8.2799 19.3688 7.88437 19.1589 7.48573C18.8173 6.83708 18.3677 6.27489 17.8163 5.79291C17.7604 5.7444 17.6989 5.70274 17.6393 5.65796C17.6213 5.66791 17.6033 5.67786 17.5847 5.68719C18.3727 7.04729 18.0585 8.25626 17.0811 9.37382C17.096 9.39497 17.1102 9.41611 17.1251 9.43726L17.1258 9.4385Z" fill="white"/>
<path d="M35.1693 6.71903C33.882 5.71839 33.5523 4.37695 32.9071 3.60081C32.1551 2.69657 31.4558 2.8508 31.1255 2.03362C30.8125 1.25811 29.9692 0 29.5345 0C29.2867 0 29.2147 0.269284 29.2805 0.521776C29.3674 0.857603 29.4525 1.19405 29.5332 1.53174C29.5469 1.58896 29.5351 1.65239 29.5351 1.74568C29.4749 1.70526 29.4451 1.69468 29.4295 1.67354C29.0029 1.08708 28.3993 0.736954 27.7653 0.429112C27.7255 0.409833 27.6752 0.39553 27.6374 0.393042C27.4889 0.383092 27.3399 0.449635 27.2697 0.540433C27.2076 0.62128 27.2244 0.798522 27.2635 0.914196C27.3101 1.0535 27.4237 1.16855 27.4958 1.3004C27.7199 1.71023 27.9634 2.1126 28.1528 2.5386C28.3962 3.08463 28.0143 3.57469 27.4231 3.51934C27.2741 3.50566 27.1188 3.49011 26.9729 3.51499C26.0948 3.663 25.3503 4.05604 24.7758 4.75071C24.6721 4.87633 24.6845 4.969 24.7945 5.0828C25.2764 5.58281 25.8036 6.01566 26.4718 6.24327C26.6158 6.2924 26.632 6.36454 26.5668 6.49825C26.2557 7.12948 25.8452 7.68298 25.3086 8.1407C24.361 8.94792 23.2401 9.28126 22.0217 9.37579C21.0828 9.44855 20.1364 9.50017 19.2118 9.66311C18.3095 9.82232 17.4333 10.1233 16.5397 10.3348C16.2931 10.3932 16.0162 10.3932 15.7665 10.3478C15.5355 10.3062 15.3387 10.3099 15.1406 10.4293C14.8158 10.6264 14.5519 10.8939 14.3954 11.2328C14.1588 11.7446 13.9104 12.2614 13.762 12.8019C13.0497 15.389 13.0385 18.0072 13.5098 20.6353C13.639 21.358 13.8986 22.029 14.35 22.6173C14.5016 22.8151 14.6736 22.904 14.935 22.8512C15.5703 22.7231 16.2087 22.6092 16.8483 22.5054C17.1072 22.4631 17.3749 22.4357 17.6363 22.4488C18.4076 22.4867 18.6845 22.8636 18.6398 23.6323C18.5858 24.5583 18.5368 25.4905 18.5883 26.4147C18.6696 27.8736 18.6939 29.3264 18.5194 30.7785C18.4517 31.3407 18.3716 31.9011 18.2933 32.462C18.2436 32.8203 18.2554 32.8513 18.5951 32.931C18.7535 32.9683 18.8361 33.0479 18.8814 33.2071C19.0304 33.732 19.2472 33.8955 19.7887 33.9148C19.9017 33.9185 20.016 33.9005 20.1277 33.9148C20.2097 33.9248 20.2879 33.9701 20.3674 34H20.7748C21.071 33.7195 20.9536 33.3769 20.8822 33.0653C20.8226 32.8059 20.691 32.5591 20.568 32.319C20.427 32.0441 20.26 31.7823 20.1041 31.5155C19.8427 31.0684 19.6949 30.6032 19.7694 30.0702C19.8657 29.383 19.9265 28.6902 19.9998 27.9999C20.034 27.679 20.1824 27.4122 20.3761 27.1653C20.5469 26.9476 20.7077 26.952 20.8102 27.2126C20.9251 27.5042 21.0058 27.8133 21.0642 28.1224C21.2586 29.1554 21.4032 30.1946 21.3623 31.2506C21.3492 31.5901 21.3182 31.9284 21.2964 32.268C21.2859 32.4334 21.3039 32.5591 21.5305 32.4969C21.5777 32.4838 21.674 32.5491 21.705 32.6032C21.756 32.6928 21.7659 32.8041 21.8038 32.9023C21.9354 33.2425 22.2416 33.4596 22.6042 33.4627C22.9818 33.4658 23.3587 33.4602 23.7363 33.4565C23.9934 33.4533 24.0642 33.3843 24.0406 33.1262C23.9965 32.6523 23.799 32.2419 23.4929 31.8824C23.3215 31.6815 23.142 31.4875 22.9719 31.2854C22.5583 30.7941 22.3813 30.2356 22.4384 29.5864C22.5285 28.5646 22.567 27.5409 22.8682 26.5446C23.2606 25.2449 23.6109 23.9326 23.9679 22.6229C24.1344 22.0128 24.4368 21.5178 25.0019 21.2013C25.1584 21.1136 25.2993 20.9948 25.4378 20.8779C26.1296 20.2927 26.5146 19.5296 26.7015 18.6571C26.9058 17.7018 27.2468 16.7945 27.8081 15.999C28.7564 14.6551 29.3376 13.1675 29.7046 11.5773C29.835 11.0126 30.0207 10.4598 30.2002 9.90814C30.3635 9.40689 30.8392 9.10278 31.354 9.23027C31.9216 9.37082 32.4699 9.58786 33.0257 9.77505C33.1971 9.83289 33.3623 9.90814 33.533 9.96598C34.0652 10.1445 34.5608 10.0661 35.0097 9.72903C35.4413 9.40502 35.7767 9.00638 35.9487 8.48274C35.9679 8.42366 36.2697 7.2122 35.1706 6.72089L35.1693 6.71903ZM35.3792 8.18734C35.2401 8.36334 35.0836 8.5269 34.9209 8.68113C34.8793 8.72093 34.7713 8.73772 34.7204 8.71222C34.4577 8.58162 34.2503 8.38883 34.1484 8.10463C34.0776 7.90748 34.1509 7.77813 34.3558 7.74144C34.503 7.71532 34.6539 7.70847 34.8297 7.69044C34.9464 7.70785 35.0898 7.71718 35.2258 7.75325C35.4463 7.81109 35.519 8.00947 35.3786 8.18672L35.3792 8.18734ZM31.8272 6.16118C31.8489 6.27064 31.793 6.37885 31.6912 6.42425C31.4266 6.54241 30.8951 6.72525 30.497 6.51878C30.2045 6.36641 30.0424 6.03431 29.9549 5.7557C29.8717 5.49077 30.0176 5.20905 30.2815 5.12509C30.5591 5.03616 30.9236 4.9777 31.2167 5.13007C31.6148 5.33716 31.7707 5.87759 31.8272 6.1618V6.16118Z" fill="white"/>
<path d="M17.7611 23.128C17.3947 23.133 17.0283 23.1734 16.6619 23.1921C16.583 23.1958 16.4967 23.1865 16.4247 23.1572C16.285 23.1 16.1962 23.1311 16.1396 23.2654C17.3481 24.7437 17.4226 25.6728 16.4924 27.2904C16.5837 27.2295 16.6861 27.1797 16.765 27.1057C17.0823 26.8072 17.3916 26.5 17.7058 26.1971C17.8691 26.0398 17.8921 25.8519 17.9008 25.6287C17.9293 24.9154 17.9865 24.2033 18.0535 23.4924C18.0759 23.2524 18.0181 23.1243 17.7617 23.128H17.7611Z" fill="white"/>
<path d="M6.84335 31.9955C5.85411 30.8245 5.28404 29.4631 4.87853 28.0079C4.68292 27.3058 4.8214 26.6602 5.12134 26.0352C5.19772 25.876 5.3567 25.7467 5.4989 25.6297C5.87709 25.3194 6.26955 25.0271 6.65022 24.7205C7.06069 24.3903 7.24078 24.0004 6.93153 23.4997C6.91973 23.4811 6.91849 23.4568 6.91103 23.435C6.49559 22.1931 6.21242 20.9219 6.03668 19.6234C5.79636 17.8442 5.81809 16.0668 6.04165 14.2918C6.2385 12.729 6.61606 11.2072 7.16564 9.72957C7.20538 9.62385 7.22091 9.5088 7.25506 9.36763C6.44529 9.35021 5.70383 9.49387 4.981 9.69475C4.25506 9.89562 3.549 10.1711 2.81499 10.4205C2.81126 10.3633 2.79698 10.2974 2.80505 10.2339C2.85721 9.81415 3.03916 9.47149 3.41238 9.25071C3.67195 9.0971 3.93711 8.95282 4.1942 8.79548C4.38236 8.6798 4.44136 8.49572 4.4072 8.2849C4.37243 8.06972 4.27742 7.90056 4.0402 7.84957C3.57135 7.74757 3.10188 7.70902 2.62683 7.80914C1.69162 8.00691 1.02592 8.58714 0.488139 9.33715C0.163983 9.78928 0.0137032 10.2999 0.119271 10.8583C0.204968 11.3098 0.326682 11.7551 0.412999 12.2066C0.454606 12.4255 0.502422 12.6631 0.459574 12.8745C0.346554 13.4336 0.106231 13.9685 0.0428897 14.5369C0.00873528 14.8478 -0.163279 16.3541 0.508011 17.9443C0.887435 18.8634 1.31964 19.7615 1.74254 20.662C1.97355 21.1545 2.09029 21.6601 1.99031 22.2C1.7562 23.4618 1.19234 24.5688 0.376982 25.547C0.0993998 25.8797 0.0385428 26.2212 0.177023 26.6192C0.394991 27.2461 0.618547 27.8717 0.819748 28.5048C1.16874 29.6043 1.42708 30.7188 1.30226 31.8879C1.28611 32.0378 1.28859 32.1902 1.2948 32.3407C1.30474 32.5727 1.39975 32.6784 1.632 32.6722C1.84811 32.6659 1.93939 32.758 1.99342 32.957C2.08408 33.2922 2.29832 33.5503 2.63925 33.6218C2.95906 33.689 3.29625 33.7145 3.62289 33.6971C3.98307 33.6778 4.12652 33.4247 4.03585 33.0739C3.93774 32.6921 3.74275 32.3643 3.47634 32.0776C3.1764 31.7542 2.92056 31.4022 2.7591 30.9874C2.61441 30.6149 2.45357 30.248 2.32316 29.8711C2.14494 29.3574 1.97106 28.84 2.02136 28.2815C2.07663 27.6746 2.32503 27.1584 2.74419 26.6795C3.12176 27.2025 3.55583 27.6472 3.78373 28.2368C4.26934 29.4924 4.55065 30.7928 4.64939 32.1342C4.66119 32.294 4.69286 32.4551 4.89033 32.4545C5.08408 32.4545 5.17537 32.5559 5.24554 32.712C5.30391 32.8426 5.35856 32.9775 5.43618 33.0969C5.60075 33.3519 5.77152 33.6305 6.10188 33.6647C6.42852 33.6983 6.76572 33.6946 7.09174 33.656C7.46185 33.6118 7.56556 33.4514 7.42645 33.1094C7.2681 32.7219 7.10665 32.3096 6.8421 31.9968L6.84335 31.9955Z" fill="white"/>
<path d="M13.967 23.2064C13.9732 23.1746 13.962 23.1324 13.9446 23.105C13.7018 22.7275 13.4571 22.3519 13.2025 21.9607C13.0156 22.4445 12.7008 22.8295 12.2735 23.1205C11.6352 23.5559 10.939 23.8594 10.1721 23.9601C9.2456 24.082 8.34392 24.0553 7.60805 23.3513C7.6006 23.3438 7.5801 23.3506 7.55402 23.3506C7.55588 23.3786 7.54905 23.411 7.56085 23.434C7.88687 24.087 8.21165 24.74 8.5445 25.3892C8.58735 25.4732 8.66497 25.546 8.74197 25.6038C9.27851 26.0055 9.88087 26.2643 10.5528 26.1679C12.6461 25.8669 13.6354 24.8432 13.9676 23.207L13.967 23.2064Z" fill="white"/>
<path d="M14.589 23.5279C15.02 24.6871 14.8188 25.7506 13.9798 26.6498C13.1489 27.541 12.11 27.87 10.8389 27.5647C11.2791 27.9123 11.9039 28.1573 12.6155 28.25C13.7892 28.4024 14.7604 28.0261 15.4013 27.013C16.0452 25.995 16.0279 24.9353 15.4354 23.8818C15.2522 23.5565 15.0231 23.3755 14.5884 23.5279H14.589Z" fill="white"/>
</svg>
